<svg width="216" height="204" viewBox="0 0 216 204" fill="none" xmlns="http://www.w3.org/2000/svg">
<path d="M215 82.5C201.475 181.721 144.062 207.124 65.781 202.496C-16.7153 194.96 -15.6889 121.561 36.0691 112.507C100.69 101.204 101.723 84.4997 114.296 42.64C135.65 -28.4532 222.719 -4.63862 215 82.5Z" fill="#F0EDFE"/>
<mask id="mask0" mask-type="alpha" maskUnits="userSpaceOnUse" x="0" y="0" width="216" height="204">
<path d="M215 82.5C201.475 181.721 144.062 207.124 65.781 202.496C-16.7153 194.96 -15.6889 121.561 36.0691 112.507C100.69 101.204 101.723 84.4997 114.296 42.64C135.65 -28.4532 222.719 -4.63862 215 82.5Z" fill="#F0EDFE"/>
</mask>
<g mask="url(#mask0)">
<circle cx="-14.3384" cy="202.624" r="63.5222" transform="rotate(28.1388 -14.3384 202.624)" stroke="#E2DCFF" stroke-width="1.1211"/>
<circle cx="-9.1126" cy="182.972" r="63.5222" transform="rotate(28.1388 -9.1126 182.972)" stroke="#E2DCFF" stroke-width="1.1211"/>
<circle cx="-20.3168" cy="216.53" r="66.2642" transform="rotate(28.1388 -20.3168 216.53)" stroke="#E2DCFF" stroke-width="1.1211"/>
<circle cx="229.662" cy="-12.376" r="63.5222" transform="rotate(28.1388 229.662 -12.376)" stroke="#E2DCFF" stroke-width="1.1211"/>
<circle cx="230.887" cy="-48.028" r="63.5222" transform="rotate(28.1388 230.887 -48.028)" stroke="#E2DCFF" stroke-width="1.1211"/>
<circle cx="226.683" cy="1.52987" r="66.2642" transform="rotate(28.1388 226.683 1.52987)" stroke="#E2DCFF" stroke-width="1.1211"/>
</g>
<rect x="86" y="52" width="68" height="125" rx="10" fill="url(#paint0_linear)" stroke="#424672" stroke-width="4"/>
<mask id="mask1" mask-type="alpha" maskUnits="userSpaceOnUse" x="88" y="54" width="64" height="121">
<rect x="88" y="54" width="64" height="121" rx="10" fill="#FFD88A"/>
</mask>
<g mask="url(#mask1)">
<rect opacity="0.5" x="-18.7126" y="169.703" width="212.325" height="40.4429" transform="rotate(-37.3124 -18.7126 169.703)" fill="url(#paint1_linear)"/>
<circle opacity="0.5" cx="151" cy="60" r="20" fill="#E59B50"/>
<rect opacity="0.5" x="-6" y="230.917" width="186.283" height="35.4824" transform="rotate(-37.3124 -6 230.917)" fill="url(#paint2_linear)"/>
</g>
<path d="M108 165C108 163.895 108.895 163 110 163H131C132.105 163 133 163.895 133 165C133 166.105 132.105 167 131 167H110C108.895 167 108 166.105 108 165Z" fill="#424672"/>
<rect opacity="0.5" x="64" y="101" width="42" height="32" rx="4" fill="#897FF8"/>
<rect x="59" y="87" width="52" height="40" rx="4" fill="url(#paint3_linear)"/>
<rect x="141" y="143" width="58" height="22" rx="4" fill="#25D09D"/>
<path d="M105 52H135V56C135 57.6569 133.657 59 132 59H108C106.343 59 105 57.6569 105 56V52Z" fill="#424672"/>
<circle cx="149" cy="57" r="18" fill="white"/>
<ellipse cx="149" cy="50.2226" rx="3.70555" ry="3.7879" fill="#FF5E75"/>
<path d="M140.107 65.0401C140.107 60.6222 143.688 57.0408 148.106 57.0408H149.894C154.312 57.0408 157.893 60.6222 157.893 65.0401C157.893 65.5702 157.464 66 156.933 66H141.067C140.536 66 140.107 65.5702 140.107 65.0401Z" fill="#FF5E75"/>
<path d="M148 154.366L151.254 156.938C151.298 156.972 151.361 156.964 151.395 156.92L156 151" stroke="white" stroke-width="2"/>
<line x1="162" y1="151" x2="191" y2="151" stroke="white" stroke-width="2"/>
<line x1="74" y1="102" x2="103" y2="102" stroke="white" stroke-width="2"/>
<line x1="74" y1="118" x2="103" y2="118" stroke="white" stroke-width="2"/>
<line x1="162" y1="157" x2="182" y2="157" stroke="white" stroke-width="2"/>
<line x1="74" y1="96" x2="94" y2="96" stroke="white" stroke-width="2"/>
<line x1="74" y1="112" x2="94" y2="112" stroke="white" stroke-width="2"/>
<circle cx="67" cy="99" r="3" fill="white"/>
<circle cx="67" cy="115" r="3" fill="white"/>
<path d="M69.7269 33.6007C69.8335 33.3663 70.1665 33.3663 70.2731 33.6007L72.1412 37.7098C72.1713 37.7758 72.2242 37.8287 72.2902 37.8588L76.3993 39.7269C76.6337 39.8335 76.6337 40.1665 76.3993 40.2731L72.2902 42.1412C72.2242 42.1713 72.1713 42.2242 72.1412 42.2902L70.2731 46.3993C70.1665 46.6337 69.8335 46.6337 69.7269 46.3993L67.8588 42.2902C67.8287 42.2242 67.7758 42.1713 67.7098 42.1412L63.6007 40.2731C63.3663 40.1665 63.3663 39.8335 63.6007 39.7269L67.7098 37.8588C67.7758 37.8287 67.8287 37.7758 67.8588 37.7098L69.7269 33.6007Z" fill="#FF5E75"/>
<circle cx="113.5" cy="10.5" r="3" stroke="#424672"/>
<circle cx="76" cy="78" r="3" fill="#FFBF8A"/>
<defs>
<linearGradient id="paint0_linear" x1="95.5" y1="50" x2="160.5" y2="192" gradientUnits="userSpaceOnUse">
<stop stop-color="#FFD88A"/>
<stop offset="1" stop-color="#FFAD8A"/>
</linearGradient>
<linearGradient id="paint1_linear" x1="-36.5374" y1="182.749" x2="171.122" y2="199.855" gradientUnits="userSpaceOnUse">
<stop stop-color="white"/>
<stop offset="1" stop-color="white" stop-opacity="0"/>
</linearGradient>
<linearGradient id="paint2_linear" x1="-21.6385" y1="242.363" x2="160.551" y2="257.371" gradientUnits="userSpaceOnUse">
<stop stop-color="white"/>
<stop offset="1" stop-color="white" stop-opacity="0"/>
</linearGradient>
<linearGradient id="paint3_linear" x1="37" y1="56.5" x2="91.5813" y2="143.271" gradientUnits="userSpaceOnUse">
<stop stop-color="#8DC5F9"/>
<stop offset="1" stop-color="#B47FF8"/>
</linearGradient>
</defs>
</svg>
